<?xml version="1.0" encoding="UTF-8"?>
<svg xmlns="http://www.w3.org/2000/svg" xmlns:xlink="http://www.w3.org/1999/xlink" width="250px" height="250px" viewBox="0 0 250 250" version="1.1">
<defs>
<filter id="alpha" filterUnits="objectBoundingBox" x="0%" y="0%" width="100%" height="100%">
  <feColorMatrix type="matrix" in="SourceGraphic" values="0 0 0 0 1 0 0 0 0 1 0 0 0 0 1 0 0 0 1 0"/>
</filter>
<mask id="mask0">
  <g filter="url(#alpha)">
<rect x="0" y="0" width="250" height="250" style="fill:rgb(0%,0%,0%);fill-opacity:0.2;stroke:none;"/>
  </g>
</mask>
<clipPath id="clip1">
  <rect x="0" y="0" width="250" height="250"/>
</clipPath>
<g id="surface5" clip-path="url(#clip1)">
<path style=" stroke:none;fill-rule:nonzero;fill:rgb(0%,19.215687%,32.941177%);fill-opacity:1;" d="M 80.6875 115.402344 C 80.6875 115.402344 66.503906 143.28125 94.546875 158.773438 C 116.722656 168.066406 125.203125 150.621094 121.125 141 C 118.554688 134.933594 112.621094 131.617188 104.65625 136.109375 L 99.765625 122.902344 C 99.765625 122.902344 121.699219 120.253906 119.496094 107.246094 C 117.867188 97.628906 96.34375 104.476562 91.289062 110.507812 L 82.972656 97.628906 C 82.972656 97.628906 103.027344 82.789062 118.515625 90.453125 C 134.007812 98.117188 132.214844 117.195312 115.910156 126 C 115.910156 126 128.296875 129.710938 133.519531 143.121094 C 139.550781 158.609375 132.539062 181.4375 105.308594 178.664062 C 78.078125 175.894531 63.242188 141.976562 80.6875 115.402344 Z M 80.6875 115.402344 "/>
<path style=" stroke:none;fill-rule:nonzero;fill:rgb(0%,19.215687%,32.941177%);fill-opacity:1;" d="M 119.171875 129.421875 C 119.171875 129.421875 132.867188 134.476562 139.714844 124.53125 C 146.5625 114.585938 147.054688 107.085938 163.195312 107.085938 C 182.066406 107.085938 193.070312 134.523438 177.871094 154.042969 C 162.378906 173.9375 134.824219 165.132812 143.140625 141.816406 C 143.140625 141.816406 147.867188 157.304688 164.011719 149.316406 C 180.152344 141.328125 172.976562 119.3125 165.476562 117.195312 C 157.976562 115.074219 152.757812 114.257812 144.605469 128.769531 C 136.453125 143.28125 125.367188 133.5 125.367188 133.5 Z M 119.171875 129.421875 "/>
<path style=" stroke:none;fill-rule:nonzero;fill:rgb(0%,19.215687%,32.941177%);fill-opacity:1;" d="M 124.714844 75.613281 C 124.714844 75.613281 128.300781 90.777344 143.628906 90.777344 C 158.957031 90.777344 167.109375 80.832031 167.109375 80.832031 L 175.425781 92.246094 C 175.425781 92.246094 165.804688 103.171875 148.847656 102.519531 C 131.886719 101.867188 124.386719 88.984375 124.714844 75.613281 Z M 124.714844 75.613281 "/>
<path style=" stroke:none;fill-rule:nonzero;fill:rgb(0%,19.215687%,32.941177%);fill-opacity:1;" d="M 135.3125 77.40625 L 144.445312 86.214844 L 154.0625 77.082031 L 144.28125 67.789062 Z M 135.3125 77.40625 "/>
</g>
</defs>
<g id="surface1">
<path style=" stroke:none;fill-rule:nonzero;fill:rgb(100%,50.980395%,33.333334%);fill-opacity:1;" d="M 210.804688 125 C 210.804688 77.609375 172.390625 39.195312 125 39.195312 C 77.609375 39.195312 39.195312 77.609375 39.195312 125 C 39.195312 172.390625 77.609375 210.804688 125 210.804688 C 172.390625 210.804688 210.804688 172.390625 210.804688 125 Z M 210.804688 125 "/>
<path style=" stroke:none;fill-rule:nonzero;fill:rgb(100%,36.862746%,26.274511%);fill-opacity:1;" d="M 196.140625 125 C 196.140625 85.710938 164.289062 53.859375 125 53.859375 C 85.710938 53.859375 53.859375 85.710938 53.859375 125 C 53.859375 164.289062 85.710938 196.140625 125 196.140625 C 164.289062 196.140625 196.140625 164.289062 196.140625 125 Z M 196.140625 125 "/>
<path style="fill:none;stroke-width:3;stroke-linecap:butt;stroke-linejoin:miter;stroke:rgb(100%,36.862746%,26.274511%);stroke-opacity:1;stroke-miterlimit:10;" d="M 401.609375 250 C 401.609375 166.265625 333.734375 98.390625 250 98.390625 C 166.265625 98.390625 98.390625 166.265625 98.390625 250 C 98.390625 333.734375 166.265625 401.609375 250 401.609375 C 333.734375 401.609375 401.609375 333.734375 401.609375 250 Z M 401.609375 250 " transform="matrix(0.5,0,0,0.5,0,0)"/>
<path style=" stroke:none;fill-rule:nonzero;fill:rgb(100%,36.862746%,26.274511%);fill-opacity:1;" d="M 223.949219 131.226562 L 230.472656 125 L 223.949219 118.773438 L 229.640625 111.78125 L 222.390625 106.421875 L 227.160156 98.769531 L 219.292969 94.363281 L 223.066406 86.171875 L 214.710938 82.785156 L 217.425781 74.1875 L 208.710938 71.875 L 210.332031 63.003906 L 201.394531 61.800781 L 201.886719 52.796875 L 192.871094 52.726562 L 192.230469 43.730469 L 183.277344 44.789062 L 181.515625 35.945312 L 172.765625 38.117188 L 169.910156 29.5625 L 161.496094 32.816406 L 157.59375 24.6875 L 149.65625 28.96875 L 144.765625 21.394531 L 137.425781 26.636719 L 131.621094 19.734375 L 125 25.855469 L 118.378906 19.734375 L 112.574219 26.636719 L 105.234375 21.394531 L 100.34375 28.96875 L 92.40625 24.6875 L 88.503906 32.816406 L 80.089844 29.5625 L 77.234375 38.117188 L 68.484375 35.945312 L 66.722656 44.789062 L 57.769531 43.730469 L 57.128906 52.726562 L 48.113281 52.796875 L 48.605469 61.800781 L 39.667969 63.003906 L 41.289062 71.875 L 32.570312 74.1875 L 35.289062 82.785156 L 26.933594 86.171875 L 30.707031 94.363281 L 22.839844 98.769531 L 27.609375 106.421875 L 20.355469 111.78125 L 26.050781 118.773438 L 19.527344 125 L 26.050781 131.226562 L 20.359375 138.21875 L 27.609375 143.578125 L 22.839844 151.230469 L 30.707031 155.636719 L 26.933594 163.828125 L 35.289062 167.214844 L 32.574219 175.8125 L 41.289062 178.125 L 39.667969 186.996094 L 48.605469 188.199219 L 48.113281 197.203125 L 57.128906 197.273438 L 57.769531 206.269531 L 66.722656 205.210938 L 68.484375 214.054688 L 77.238281 211.882812 L 80.089844 220.4375 L 88.503906 217.183594 L 92.40625 225.3125 L 100.34375 221.03125 L 105.238281 228.605469 L 112.574219 223.363281 L 118.378906 230.265625 L 125 224.144531 L 131.621094 230.265625 L 137.425781 223.363281 L 144.765625 228.605469 L 149.65625 221.03125 L 157.59375 225.3125 L 161.496094 217.183594 L 169.910156 220.4375 L 172.765625 211.882812 L 181.515625 214.054688 L 183.277344 205.210938 L 192.230469 206.269531 L 192.871094 197.273438 L 201.886719 197.203125 L 201.394531 188.199219 L 210.332031 186.996094 L 208.710938 178.125 L 217.425781 175.8125 L 214.710938 167.214844 L 223.066406 163.828125 L 219.292969 155.636719 L 227.160156 151.230469 L 222.390625 143.578125 L 229.640625 138.21875 Z M 125 214.015625 C 75.835938 214.015625 35.984375 174.160156 35.984375 125 C 35.984375 75.835938 75.839844 35.984375 125 35.984375 C 174.160156 35.984375 214.015625 75.835938 214.015625 125 C 214.015625 174.160156 174.164062 214.015625 125 214.015625 Z M 125 214.015625 "/>
<path style="fill:none;stroke-width:1.9816;stroke-linecap:butt;stroke-linejoin:miter;stroke:rgb(100%,36.862746%,26.274511%);stroke-opacity:1;stroke-miterlimit:10;" d="M 452.289062 262.726562 L 465.625 250 L 452.289062 237.273438 L 463.921875 222.976562 L 449.09375 212.023438 L 458.851562 196.375 L 442.765625 187.367188 L 450.484375 170.625 L 433.398438 163.703125 L 438.953125 146.125 L 421.132812 141.398438 L 424.445312 123.257812 L 406.171875 120.804688 L 407.179688 102.390625 L 388.75 102.25 L 387.445312 83.859375 L 369.132812 86.023438 L 365.539062 67.945312 L 347.640625 72.382812 L 341.804688 54.898438 L 324.609375 61.546875 L 316.632812 44.929688 L 300.40625 53.679688 L 290.40625 38.195312 L 275.40625 48.914062 L 263.539062 34.804688 L 250 47.3125 L 236.460938 34.804688 L 224.59375 48.914062 L 209.59375 38.195312 L 199.59375 53.679688 L 183.367188 44.929688 L 175.390625 61.546875 L 158.195312 54.898438 L 152.359375 72.382812 L 134.460938 67.945312 L 130.867188 86.023438 L 112.554688 83.859375 L 111.25 102.25 L 92.820312 102.390625 L 93.828125 120.804688 L 75.554688 123.257812 L 78.867188 141.398438 L 61.046875 146.125 L 66.601562 163.703125 L 49.515625 170.625 L 57.234375 187.367188 L 41.148438 196.375 L 50.90625 212.023438 L 36.078125 222.976562 L 47.710938 237.273438 L 34.375 250 L 47.710938 262.726562 L 36.078125 277.023438 L 50.898438 287.976562 L 41.148438 303.625 L 57.234375 312.632812 L 49.515625 329.375 L 66.601562 336.296875 L 61.046875 353.875 L 78.867188 358.601562 L 75.554688 376.742188 L 93.828125 379.195312 L 92.8125 397.609375 L 111.25 397.75 L 112.554688 416.140625 L 130.859375 413.976562 L 134.460938 432.0625 L 152.351562 427.617188 L 158.1875 445.101562 L 175.382812 438.453125 L 183.367188 455.070312 L 199.59375 446.320312 L 209.59375 461.804688 L 224.59375 451.09375 L 236.460938 465.203125 L 250 452.6875 L 263.539062 465.195312 L 275.40625 451.085938 L 290.40625 461.804688 L 300.40625 446.320312 L 316.632812 455.070312 L 324.609375 438.453125 L 341.804688 445.101562 L 347.640625 427.617188 L 365.539062 432.054688 L 369.132812 413.976562 L 387.445312 416.140625 L 388.75 397.75 L 407.179688 397.601562 L 406.171875 379.195312 L 424.445312 376.742188 L 421.132812 358.601562 L 438.953125 353.875 L 433.398438 336.296875 L 450.484375 329.375 L 442.765625 312.632812 L 458.851562 303.625 L 449.09375 287.976562 L 463.921875 277.023438 Z M 452.289062 262.726562 " transform="matrix(0.5,0,0,0.5,0,0)"/>
<path style=" stroke:none;fill-rule:nonzero;fill:rgb(100%,100%,100%);fill-opacity:1;" d="M 116.507812 31.160156 C 116.527344 32.089844 117.296875 32.832031 118.230469 32.8125 C 119.160156 32.796875 119.902344 32.023438 119.882812 31.09375 C 119.863281 30.160156 119.09375 29.421875 118.164062 29.441406 C 117.230469 29.457031 116.492188 30.226562 116.507812 31.160156 Z M 116.507812 31.160156 "/>
<path style=" stroke:none;fill-rule:nonzero;fill:rgb(100%,100%,100%);fill-opacity:1;" d="M 104.660156 32.640625 C 104.679688 33.574219 105.449219 34.316406 106.382812 34.296875 C 107.3125 34.277344 108.054688 33.507812 108.035156 32.574219 C 108.015625 31.644531 107.246094 30.902344 106.316406 30.921875 C 105.382812 30.941406 104.640625 31.710938 104.660156 32.640625 Z M 104.660156 32.640625 "/>
<path style=" stroke:none;fill-rule:nonzero;fill:rgb(100%,100%,100%);fill-opacity:1;" d="M 93.664062 36.046875 C 93.679688 36.976562 94.453125 37.71875 95.382812 37.699219 C 96.316406 37.679688 97.054688 36.910156 97.035156 35.980469 C 97.019531 35.046875 96.25 34.304688 95.316406 34.324219 C 94.386719 34.34375 93.644531 35.113281 93.664062 36.046875 Z M 93.664062 36.046875 "/>
<path style=" stroke:none;fill-rule:nonzero;fill:rgb(100%,100%,100%);fill-opacity:1;" d="M 83.289062 41.132812 C 83.636719 42 84.617188 42.421875 85.480469 42.074219 C 86.347656 41.730469 86.769531 40.746094 86.425781 39.882812 C 86.078125 39.015625 85.097656 38.59375 84.230469 38.941406 C 83.367188 39.285156 82.945312 40.265625 83.289062 41.132812 Z M 83.289062 41.132812 "/>
<path style=" stroke:none;fill-rule:nonzero;fill:rgb(100%,100%,100%);fill-opacity:1;" d="M 72.722656 46.695312 C 73.070312 47.558594 74.050781 47.980469 74.914062 47.636719 C 75.78125 47.289062 76.203125 46.308594 75.859375 45.445312 C 75.511719 44.578125 74.53125 44.15625 73.664062 44.5 C 72.800781 44.847656 72.378906 45.828125 72.722656 46.695312 Z M 72.722656 46.695312 "/>
<path style=" stroke:none;fill-rule:nonzero;fill:rgb(100%,100%,100%);fill-opacity:1;" d="M 63.628906 53.753906 C 63.972656 54.617188 64.957031 55.039062 65.820312 54.695312 C 66.6875 54.351562 67.109375 53.367188 66.761719 52.503906 C 66.417969 51.636719 65.4375 51.214844 64.570312 51.5625 C 63.707031 51.90625 63.285156 52.886719 63.628906 53.753906 Z M 63.628906 53.753906 "/>
<path style=" stroke:none;fill-rule:nonzero;fill:rgb(100%,100%,100%);fill-opacity:1;" d="M 55.058594 61.914062 C 55.71875 62.574219 56.785156 62.574219 57.445312 61.914062 C 58.101562 61.253906 58.101562 60.183594 57.441406 59.527344 C 56.78125 58.867188 55.714844 58.871094 55.054688 59.53125 C 54.398438 60.1875 54.398438 61.257812 55.058594 61.914062 Z M 55.058594 61.914062 "/>
<path style=" stroke:none;fill-rule:nonzero;fill:rgb(100%,100%,100%);fill-opacity:1;" d="M 47.554688 71.203125 C 48.210938 71.863281 49.28125 71.863281 49.941406 71.203125 C 50.597656 70.542969 50.597656 69.472656 49.9375 68.816406 C 49.277344 68.15625 48.210938 68.15625 47.550781 68.816406 C 46.890625 69.476562 46.894531 70.546875 47.554688 71.203125 Z M 47.554688 71.203125 "/>
<path style=" stroke:none;fill-rule:nonzero;fill:rgb(100%,100%,100%);fill-opacity:1;" d="M 41.996094 81.285156 C 42.652344 81.945312 43.722656 81.941406 44.382812 81.28125 C 45.039062 80.625 45.039062 79.554688 44.378906 78.898438 C 43.71875 78.238281 42.652344 78.238281 41.992188 78.898438 C 41.332031 79.558594 41.335938 80.628906 41.996094 81.285156 Z M 41.996094 81.285156 "/>
<path style=" stroke:none;fill-rule:nonzero;fill:rgb(100%,100%,100%);fill-opacity:1;" d="M 38.054688 92.148438 C 38.902344 92.53125 39.902344 92.152344 40.285156 91.304688 C 40.671875 90.453125 40.292969 89.453125 39.445312 89.070312 C 38.59375 88.6875 37.59375 89.066406 37.210938 89.914062 C 36.828125 90.761719 37.203125 91.761719 38.054688 92.148438 Z M 38.054688 92.148438 "/>
<path style=" stroke:none;fill-rule:nonzero;fill:rgb(100%,100%,100%);fill-opacity:1;" d="M 34.304688 103.484375 C 35.152344 103.867188 36.152344 103.488281 36.535156 102.640625 C 36.917969 101.789062 36.542969 100.789062 35.691406 100.40625 C 34.84375 100.023438 33.84375 100.402344 33.460938 101.25 C 33.078125 102.097656 33.453125 103.097656 34.304688 103.484375 Z M 34.304688 103.484375 "/>
<path style=" stroke:none;fill-rule:nonzero;fill:rgb(100%,100%,100%);fill-opacity:1;" d="M 32.652344 114.875 C 33.503906 115.261719 34.5 114.882812 34.886719 114.035156 C 35.269531 113.183594 34.890625 112.183594 34.042969 111.800781 C 33.191406 111.417969 32.191406 111.792969 31.808594 112.644531 C 31.425781 113.492188 31.804688 114.492188 32.652344 114.875 Z M 32.652344 114.875 "/>
<path style=" stroke:none;fill-rule:nonzero;fill:rgb(100%,100%,100%);fill-opacity:1;" d="M 31.769531 127.3125 C 32.699219 127.367188 33.496094 126.65625 33.550781 125.726562 C 33.601562 124.796875 32.890625 123.996094 31.960938 123.945312 C 31.03125 123.890625 30.234375 124.601562 30.179688 125.53125 C 30.128906 126.464844 30.839844 127.261719 31.769531 127.3125 Z M 31.769531 127.3125 "/>
<path style=" stroke:none;fill-rule:nonzero;fill:rgb(100%,100%,100%);fill-opacity:1;" d="M 32.335938 139.242188 C 33.269531 139.292969 34.066406 138.582031 34.117188 137.652344 C 34.171875 136.722656 33.460938 135.925781 32.53125 135.871094 C 31.601562 135.816406 30.800781 136.527344 30.75 137.460938 C 30.695312 138.390625 31.40625 139.1875 32.335938 139.242188 Z M 32.335938 139.242188 "/>
<path style=" stroke:none;fill-rule:nonzero;fill:rgb(100%,100%,100%);fill-opacity:1;" d="M 34.886719 150.46875 C 35.816406 150.519531 36.617188 149.808594 36.667969 148.878906 C 36.722656 147.949219 36.011719 147.152344 35.082031 147.097656 C 34.148438 147.042969 33.351562 147.757812 33.300781 148.6875 C 33.246094 149.617188 33.957031 150.414062 34.886719 150.46875 Z M 34.886719 150.46875 "/>
<path style=" stroke:none;fill-rule:nonzero;fill:rgb(100%,100%,100%);fill-opacity:1;" d="M 39.164062 161.199219 C 40.054688 160.921875 40.550781 159.976562 40.273438 159.085938 C 39.996094 158.195312 39.046875 157.699219 38.160156 157.980469 C 37.269531 158.257812 36.773438 159.203125 37.050781 160.09375 C 37.328125 160.984375 38.273438 161.476562 39.164062 161.199219 Z M 39.164062 161.199219 "/>
<path style=" stroke:none;fill-rule:nonzero;fill:rgb(100%,100%,100%);fill-opacity:1;" d="M 43.898438 172.164062 C 44.789062 171.882812 45.285156 170.9375 45.007812 170.046875 C 44.726562 169.160156 43.78125 168.664062 42.890625 168.941406 C 42.003906 169.21875 41.507812 170.164062 41.785156 171.054688 C 42.0625 171.945312 43.007812 172.441406 43.898438 172.164062 Z M 43.898438 172.164062 "/>
<path style=" stroke:none;fill-rule:nonzero;fill:rgb(100%,100%,100%);fill-opacity:1;" d="M 50.242188 181.769531 C 51.128906 181.492188 51.625 180.546875 51.347656 179.65625 C 51.070312 178.765625 50.125 178.273438 49.234375 178.550781 C 48.34375 178.828125 47.847656 179.773438 48.125 180.664062 C 48.40625 181.554688 49.351562 182.050781 50.242188 181.769531 Z M 50.242188 181.769531 "/>
<path style=" stroke:none;fill-rule:nonzero;fill:rgb(100%,100%,100%);fill-opacity:1;" d="M 57.722656 190.945312 C 58.429688 190.335938 58.507812 189.269531 57.902344 188.5625 C 57.296875 187.855469 56.230469 187.777344 55.523438 188.382812 C 54.816406 188.992188 54.734375 190.054688 55.34375 190.761719 C 55.949219 191.46875 57.015625 191.550781 57.722656 190.945312 Z M 57.722656 190.945312 "/>
<path style=" stroke:none;fill-rule:nonzero;fill:rgb(100%,100%,100%);fill-opacity:1;" d="M 66.40625 199.136719 C 67.113281 198.53125 67.195312 197.464844 66.585938 196.757812 C 65.980469 196.050781 64.914062 195.96875 64.207031 196.578125 C 63.5 197.183594 63.417969 198.25 64.027344 198.957031 C 64.632812 199.664062 65.699219 199.746094 66.40625 199.136719 Z M 66.40625 199.136719 "/>
<path style=" stroke:none;fill-rule:nonzero;fill:rgb(100%,100%,100%);fill-opacity:1;" d="M 76.03125 205.453125 C 76.738281 204.847656 76.820312 203.78125 76.210938 203.074219 C 75.605469 202.367188 74.539062 202.285156 73.832031 202.894531 C 73.125 203.5 73.046875 204.566406 73.652344 205.273438 C 74.257812 205.980469 75.324219 206.058594 76.03125 205.453125 Z M 76.03125 205.453125 "/>
<path style=" stroke:none;fill-rule:nonzero;fill:rgb(100%,100%,100%);fill-opacity:1;" d="M 85.949219 207.953125 C 85.148438 207.46875 84.113281 207.726562 83.632812 208.527344 C 83.152344 209.324219 83.410156 210.363281 84.207031 210.84375 C 85.007812 211.324219 86.042969 211.066406 86.523438 210.265625 C 87.003906 209.46875 86.746094 208.433594 85.949219 207.953125 Z M 85.949219 207.953125 "/>
<path style=" stroke:none;fill-rule:nonzero;fill:rgb(100%,100%,100%);fill-opacity:1;" d="M 97.574219 214.824219 C 98.023438 214.007812 97.722656 212.980469 96.90625 212.535156 C 96.089844 212.085938 95.0625 212.386719 94.613281 213.203125 C 94.167969 214.019531 94.464844 215.046875 95.285156 215.492188 C 96.101562 215.941406 97.125 215.640625 97.574219 214.824219 Z M 97.574219 214.824219 "/>
<path style=" stroke:none;fill-rule:nonzero;fill:rgb(100%,100%,100%);fill-opacity:1;" d="M 108.808594 217.34375 C 109.253906 216.527344 108.957031 215.5 108.136719 215.054688 C 107.320312 214.605469 106.296875 214.90625 105.847656 215.722656 C 105.398438 216.539062 105.699219 217.566406 106.515625 218.011719 C 107.335938 218.460938 108.359375 218.160156 108.808594 217.34375 Z M 108.808594 217.34375 "/>
<path style=" stroke:none;fill-rule:nonzero;fill:rgb(100%,100%,100%);fill-opacity:1;" d="M 120.949219 218.636719 C 121.0625 217.714844 120.402344 216.871094 119.476562 216.757812 C 118.554688 216.644531 117.710938 217.304688 117.597656 218.226562 C 117.484375 219.152344 118.144531 219.996094 119.070312 220.109375 C 119.992188 220.222656 120.835938 219.5625 120.949219 218.636719 Z M 120.949219 218.636719 "/>
<path style=" stroke:none;fill-rule:nonzero;fill:rgb(100%,100%,100%);fill-opacity:1;" d="M 132.886719 218.839844 C 133 217.914062 132.34375 217.074219 131.417969 216.960938 C 130.492188 216.847656 129.652344 217.503906 129.539062 218.429688 C 129.425781 219.355469 130.082031 220.199219 131.007812 220.3125 C 131.933594 220.425781 132.773438 219.765625 132.886719 218.839844 Z M 132.886719 218.839844 "/>
<path style=" stroke:none;fill-rule:nonzero;fill:rgb(100%,100%,100%);fill-opacity:1;" d="M 144.253906 217.023438 C 144.367188 216.097656 143.710938 215.253906 142.785156 215.140625 C 141.859375 215.027344 141.019531 215.6875 140.90625 216.613281 C 140.792969 217.535156 141.449219 218.378906 142.375 218.492188 C 143.300781 218.605469 144.140625 217.945312 144.253906 217.023438 Z M 144.253906 217.023438 "/>
<path style=" stroke:none;fill-rule:nonzero;fill:rgb(100%,100%,100%);fill-opacity:1;" d="M 155.242188 213.449219 C 155.023438 212.542969 154.109375 211.984375 153.203125 212.207031 C 152.300781 212.425781 151.742188 213.339844 151.960938 214.242188 C 152.183594 215.148438 153.09375 215.703125 154 215.484375 C 154.90625 215.265625 155.460938 214.351562 155.242188 213.449219 Z M 155.242188 213.449219 "/>
<path style=" stroke:none;fill-rule:nonzero;fill:rgb(100%,100%,100%);fill-opacity:1;" d="M 166.488281 209.433594 C 166.265625 208.527344 165.355469 207.96875 164.449219 208.191406 C 163.542969 208.410156 162.988281 209.320312 163.207031 210.226562 C 163.425781 211.132812 164.339844 211.691406 165.246094 211.46875 C 166.152344 211.25 166.707031 210.335938 166.488281 209.433594 Z M 166.488281 209.433594 "/>
<path style=" stroke:none;fill-rule:nonzero;fill:rgb(100%,100%,100%);fill-opacity:1;" d="M 176.484375 203.726562 C 176.265625 202.820312 175.355469 202.261719 174.449219 202.484375 C 173.542969 202.703125 172.988281 203.613281 173.207031 204.519531 C 173.425781 205.425781 174.339844 205.984375 175.242188 205.761719 C 176.148438 205.542969 176.707031 204.628906 176.484375 203.726562 Z M 176.484375 203.726562 "/>
<path style=" stroke:none;fill-rule:nonzero;fill:rgb(100%,100%,100%);fill-opacity:1;" d="M 186.121094 196.851562 C 185.5625 196.109375 184.503906 195.957031 183.761719 196.519531 C 183.015625 197.078125 182.867188 198.136719 183.425781 198.882812 C 183.988281 199.625 185.042969 199.777344 185.789062 199.214844 C 186.535156 198.65625 186.683594 197.597656 186.121094 196.851562 Z M 186.121094 196.851562 "/>
<path style=" stroke:none;fill-rule:nonzero;fill:rgb(100%,100%,100%);fill-opacity:1;" d="M 194.863281 188.714844 C 194.300781 187.96875 193.242188 187.820312 192.5 188.382812 C 191.753906 188.941406 191.605469 190 192.164062 190.746094 C 192.722656 191.488281 193.78125 191.640625 194.527344 191.078125 C 195.273438 190.519531 195.421875 189.460938 194.863281 188.714844 Z M 194.863281 188.714844 "/>
<path style=" stroke:none;fill-rule:nonzero;fill:rgb(100%,100%,100%);fill-opacity:1;" d="M 201.785156 179.519531 C 201.226562 178.773438 200.167969 178.625 199.421875 179.183594 C 198.679688 179.742188 198.527344 180.800781 199.089844 181.546875 C 199.648438 182.292969 200.707031 182.441406 201.453125 181.882812 C 202.195312 181.320312 202.347656 180.261719 201.785156 179.519531 Z M 201.785156 179.519531 "/>
<path style=" stroke:none;fill-rule:nonzero;fill:rgb(100%,100%,100%);fill-opacity:1;" d="M 207.21875 169.320312 C 206.429688 168.820312 205.386719 169.054688 204.890625 169.839844 C 204.390625 170.628906 204.621094 171.671875 205.410156 172.171875 C 206.195312 172.667969 207.238281 172.4375 207.738281 171.652344 C 208.238281 170.863281 208.003906 169.820312 207.21875 169.320312 Z M 207.21875 169.320312 "/>
<path style=" stroke:none;fill-rule:nonzero;fill:rgb(100%,100%,100%);fill-opacity:1;" d="M 212.53125 158.628906 C 211.742188 158.128906 210.699219 158.359375 210.199219 159.148438 C 209.703125 159.933594 209.933594 160.976562 210.71875 161.476562 C 211.507812 161.976562 212.550781 161.742188 213.050781 160.957031 C 213.550781 160.167969 213.316406 159.125 212.53125 158.628906 Z M 212.53125 158.628906 "/>
<path style=" stroke:none;fill-rule:nonzero;fill:rgb(100%,100%,100%);fill-opacity:1;" d="M 215.769531 147.578125 C 214.984375 147.082031 213.941406 147.3125 213.441406 148.097656 C 212.941406 148.886719 213.175781 149.929688 213.960938 150.429688 C 214.746094 150.929688 215.789062 150.695312 216.289062 149.910156 C 216.789062 149.121094 216.558594 148.078125 215.769531 147.578125 Z M 215.769531 147.578125 "/>
<path style=" stroke:none;fill-rule:nonzero;fill:rgb(100%,100%,100%);fill-opacity:1;" d="M 218.398438 135.390625 C 217.484375 135.207031 216.59375 135.800781 216.410156 136.710938 C 216.226562 137.625 216.820312 138.515625 217.734375 138.699219 C 218.644531 138.882812 219.535156 138.292969 219.71875 137.378906 C 219.902344 136.464844 219.3125 135.574219 218.398438 135.390625 Z M 218.398438 135.390625 "/>
<path style=" stroke:none;fill-rule:nonzero;fill:rgb(100%,100%,100%);fill-opacity:1;" d="M 219.515625 123.503906 C 218.605469 123.320312 217.714844 123.910156 217.53125 124.824219 C 217.347656 125.738281 217.9375 126.628906 218.851562 126.8125 C 219.765625 126.996094 220.65625 126.40625 220.839844 125.492188 C 221.023438 124.578125 220.429688 123.6875 219.515625 123.503906 Z M 219.515625 123.503906 "/>
<path style=" stroke:none;fill-rule:nonzero;fill:rgb(100%,100%,100%);fill-opacity:1;" d="M 218.574219 112.03125 C 217.664062 111.84375 216.773438 112.4375 216.589844 113.351562 C 216.40625 114.265625 216.996094 115.15625 217.910156 115.339844 C 218.824219 115.523438 219.714844 114.929688 219.898438 114.015625 C 220.082031 113.101562 219.488281 112.214844 218.574219 112.03125 Z M 218.574219 112.03125 "/>
<path style=" stroke:none;fill-rule:nonzero;fill:rgb(100%,100%,100%);fill-opacity:1;" d="M 215.855469 100.800781 C 214.933594 100.949219 214.308594 101.816406 214.460938 102.738281 C 214.609375 103.65625 215.476562 104.28125 216.398438 104.132812 C 217.316406 103.980469 217.941406 103.113281 217.789062 102.195312 C 217.640625 101.273438 216.773438 100.652344 215.855469 100.800781 Z M 215.855469 100.800781 "/>
<path style=" stroke:none;fill-rule:nonzero;fill:rgb(100%,100%,100%);fill-opacity:1;" d="M 212.714844 89.28125 C 211.792969 89.429688 211.167969 90.296875 211.320312 91.21875 C 211.46875 92.136719 212.335938 92.761719 213.253906 92.613281 C 214.175781 92.460938 214.800781 91.59375 214.648438 90.675781 C 214.5 89.753906 213.632812 89.132812 212.714844 89.28125 Z M 212.714844 89.28125 "/>
<path style=" stroke:none;fill-rule:nonzero;fill:rgb(100%,100%,100%);fill-opacity:1;" d="M 207.789062 78.875 C 206.871094 79.023438 206.246094 79.890625 206.394531 80.808594 C 206.546875 81.730469 207.414062 82.355469 208.332031 82.203125 C 209.253906 82.054688 209.875 81.1875 209.726562 80.269531 C 209.578125 79.347656 208.710938 78.722656 207.789062 78.875 Z M 207.789062 78.875 "/>
<path style=" stroke:none;fill-rule:nonzero;fill:rgb(100%,100%,100%);fill-opacity:1;" d="M 201.675781 68.738281 C 200.890625 69.238281 200.660156 70.285156 201.164062 71.070312 C 201.664062 71.855469 202.707031 72.085938 203.492188 71.582031 C 204.277344 71.082031 204.507812 70.039062 204.007812 69.253906 C 203.503906 68.46875 202.460938 68.238281 201.675781 68.738281 Z M 201.675781 68.738281 "/>
<path style=" stroke:none;fill-rule:nonzero;fill:rgb(100%,100%,100%);fill-opacity:1;" d="M 194.234375 59.402344 C 193.449219 59.902344 193.21875 60.945312 193.71875 61.730469 C 194.222656 62.515625 195.265625 62.746094 196.050781 62.246094 C 196.835938 61.746094 197.066406 60.703125 196.566406 59.914062 C 196.0625 59.128906 195.019531 58.898438 194.234375 59.402344 Z M 194.234375 59.402344 "/>
<path style=" stroke:none;fill-rule:nonzero;fill:rgb(100%,100%,100%);fill-opacity:1;" d="M 185.59375 51.792969 C 184.808594 52.292969 184.578125 53.335938 185.082031 54.121094 C 185.582031 54.90625 186.625 55.136719 187.410156 54.636719 C 188.195312 54.136719 188.425781 53.089844 187.925781 52.304688 C 187.425781 51.519531 186.378906 51.289062 185.59375 51.792969 Z M 185.59375 51.792969 "/>
<path style=" stroke:none;fill-rule:nonzero;fill:rgb(100%,100%,100%);fill-opacity:1;" d="M 175.84375 45.59375 C 175.285156 46.339844 175.4375 47.398438 176.183594 47.957031 C 176.929688 48.515625 177.988281 48.363281 178.546875 47.617188 C 179.105469 46.871094 178.953125 45.8125 178.207031 45.253906 C 177.460938 44.695312 176.402344 44.847656 175.84375 45.59375 Z M 175.84375 45.59375 "/>
<path style=" stroke:none;fill-rule:nonzero;fill:rgb(100%,100%,100%);fill-opacity:1;" d="M 165.589844 39.476562 C 165.03125 40.222656 165.183594 41.28125 165.929688 41.839844 C 166.675781 42.398438 167.730469 42.246094 168.289062 41.5 C 168.847656 40.753906 168.695312 39.695312 167.949219 39.136719 C 167.203125 38.578125 166.148438 38.730469 165.589844 39.476562 Z M 165.589844 39.476562 "/>
<path style=" stroke:none;fill-rule:nonzero;fill:rgb(100%,100%,100%);fill-opacity:1;" d="M 154.824219 35.398438 C 154.265625 36.144531 154.417969 37.203125 155.164062 37.761719 C 155.910156 38.320312 156.964844 38.167969 157.523438 37.421875 C 158.082031 36.675781 157.929688 35.617188 157.183594 35.058594 C 156.441406 34.5 155.382812 34.652344 154.824219 35.398438 Z M 154.824219 35.398438 "/>
<path style=" stroke:none;fill-rule:nonzero;fill:rgb(100%,100%,100%);fill-opacity:1;" d="M 141.324219 32.445312 C 140.941406 33.296875 141.320312 34.296875 142.171875 34.675781 C 143.023438 35.058594 144.019531 34.679688 144.402344 33.828125 C 144.785156 32.976562 144.402344 31.980469 143.554688 31.597656 C 142.703125 31.214844 141.703125 31.597656 141.324219 32.445312 Z M 141.324219 32.445312 "/>
<path style=" stroke:none;fill-rule:nonzero;fill:rgb(100%,100%,100%);fill-opacity:1;" d="M 129.925781 30.828125 C 129.542969 31.675781 129.921875 32.675781 130.773438 33.058594 C 131.625 33.4375 132.621094 33.058594 133.003906 32.207031 C 133.386719 31.359375 133.003906 30.359375 132.15625 29.976562 C 131.304688 29.597656 130.304688 29.976562 129.925781 30.828125 Z M 129.925781 30.828125 "/>
<use xlink:href="#surface5" mask="url(#mask0)"/>
<path style=" stroke:none;fill-rule:nonzero;fill:rgb(100%,100%,100%);fill-opacity:1;" d="M 76.597656 112.5625 C 76.597656 112.5625 62.410156 140.445312 90.457031 155.933594 C 112.632812 165.230469 121.113281 147.78125 117.035156 138.160156 C 114.464844 132.09375 108.53125 128.78125 100.566406 133.269531 L 95.675781 120.0625 C 95.675781 120.0625 117.609375 117.414062 115.40625 104.410156 C 113.773438 94.789062 92.25 101.636719 87.195312 107.671875 L 78.878906 94.789062 C 78.878906 94.789062 98.9375 79.949219 114.425781 87.613281 C 129.917969 95.277344 128.121094 114.355469 111.816406 123.160156 C 111.816406 123.160156 124.203125 126.871094 129.425781 140.28125 C 135.460938 155.773438 128.449219 178.597656 101.21875 175.828125 C 73.988281 173.054688 59.148438 139.140625 76.597656 112.5625 Z M 76.597656 112.5625 "/>
<path style=" stroke:none;fill-rule:nonzero;fill:rgb(100%,100%,100%);fill-opacity:1;" d="M 115.078125 126.585938 C 115.078125 126.585938 128.773438 131.640625 135.625 121.691406 C 142.472656 111.746094 142.960938 104.246094 159.101562 104.246094 C 177.972656 104.246094 188.980469 131.683594 173.777344 151.207031 C 158.289062 171.097656 130.730469 162.292969 139.046875 138.976562 C 139.046875 138.976562 143.777344 154.46875 159.917969 146.476562 C 176.0625 138.488281 168.886719 116.476562 161.386719 114.355469 C 153.886719 112.234375 148.667969 111.421875 140.515625 125.933594 C 132.363281 140.445312 121.273438 130.660156 121.273438 130.660156 Z M 115.078125 126.585938 "/>
<path style=" stroke:none;fill-rule:nonzero;fill:rgb(100%,100%,100%);fill-opacity:1;" d="M 120.621094 72.777344 C 120.621094 72.777344 124.210938 87.941406 139.535156 87.941406 C 154.863281 87.941406 163.015625 77.992188 163.015625 77.992188 L 171.332031 89.40625 C 171.332031 89.40625 161.710938 100.332031 144.753906 99.679688 C 127.796875 99.027344 120.296875 86.148438 120.621094 72.777344 Z M 120.621094 72.777344 "/>
<path style=" stroke:none;fill-rule:nonzero;fill:rgb(100%,100%,100%);fill-opacity:1;" d="M 131.222656 74.570312 L 140.351562 83.375 L 149.972656 74.242188 L 140.1875 64.949219 Z M 131.222656 74.570312 "/>
</g>
</svg>
